# xmcd
#
# Track frame offsets:
#	150
#	17106
#	28784
#	45848
#	61923
#	82937
#	100244
#	115184
#	129574
#	145551
#	159479
#	174294
#	185279
#	197533
#	211921
#	228037
#	245491
#	264573
#	280303
#	303783
#
# Disc length: 4231
#
# Revision: 2
# Processed by: cddbd v1.5.1PL0 Copyright (c) Steve Scherf et al.
# Submitted via: audiograbber 1.82.01
# Normalized: r1:TDELIM( - )
#
DISCID=f9108514
DTITLE=Line Dance Fever - 15
DYEAR=2002
DGENRE=Country
TTITLE0=Raol Malo - I Said I Love you
TTITLE1=Nat King Cole - L.O.V.E.
TTITLE2=Greg Holland - Teach Me To Dance
TTITLE3=Michael Bolton - Dance With Me
TTITLE4=The Lino Rich Teas - Shout It To The World
TTITLE5=Liz Abella - Ritmo De La Vida
TTITLE6=Lou Bega - Angelina
TTITLE7=Fun Club - Stompy
TTITLE8=Bosson - One In a Million
TTITLE9=Aaron Carter - Leave It Up To Me
TTITLE10=Shakin Stevens - A Love Worth Waitin For
TTITLE11=Danny and The Juniors - At The Hop
TTITLE12=Jenai - Lyin To My Heart
TTITLE13=Hal Ketchum - (She's Something) You're Everything
TTITLE14=Steve Holy - Good Morning Beautiful
TTITLE15=Tim McGraw - Senorita Margarita
TTITLE16=Leo Sayer - When I Need You
TTITLE17=Kaci - I Think I Love You
TTITLE18=The Borderes - World's Got The Rhythem
TTITLE19=The Belle Stars - Iho Iho
EXTD=
EXTT0=
EXTT1=
EXTT2=
EXTT3=
EXTT4=
EXTT5=
EXTT6=
EXTT7=
EXTT8=
EXTT9=
EXTT10=
EXTT11=
EXTT12=
EXTT13=
EXTT14=
EXTT15=
EXTT16=
EXTT17=
EXTT18=
EXTT19=
PLAYORDER=
